<?xml version="1.0" encoding="UTF-8" standalone="no"?>
<svg
   xmlns:dc="http://purl.org/dc/elements/1.1/"
   xmlns:cc="http://creativecommons.org/ns#"
   xmlns:rdf="http://www.w3.org/1999/02/22-rdf-syntax-ns#"
   xmlns:svg="http://www.w3.org/2000/svg"
   xmlns="http://www.w3.org/2000/svg"
   xmlns:sodipodi="http://sodipodi.sourceforge.net/DTD/sodipodi-0.dtd"
   xmlns:inkscape="http://www.inkscape.org/namespaces/inkscape"
   width="200"
   height="24"
   viewBox="0 0 200 24"
   fill="none"
   version="1.1"
   id="svg3779"
   sodipodi:docname="64639e29461487ff78e3d6f8_logifuture-full-logo.svg"
   inkscape:version="0.92.4 (5da689c313, 2019-01-14)">
  <metadata
     id="metadata3783">
    <rdf:RDF>
      <cc:Work
         rdf:about="">
        <dc:format>image/svg+xml</dc:format>
        <dc:type
           rdf:resource="http://purl.org/dc/dcmitype/StillImage" />
        <dc:title></dc:title>
      </cc:Work>
    </rdf:RDF>
  </metadata>
  <sodipodi:namedview
     pagecolor="#ffffff"
     bordercolor="#666666"
     borderopacity="1"
     objecttolerance="10"
     gridtolerance="10"
     guidetolerance="10"
     inkscape:pageopacity="0"
     inkscape:pageshadow="2"
     inkscape:window-width="2560"
     inkscape:window-height="1494"
     id="namedview3781"
     showgrid="true"
     inkscape:zoom="5.5437172"
     inkscape:cx="143.39381"
     inkscape:cy="-15.065464"
     inkscape:window-x="-11"
     inkscape:window-y="-11"
     inkscape:window-maximized="1"
     inkscape:current-layer="svg3779">
    <inkscape:grid
       type="xygrid"
       id="grid3805" />
  </sodipodi:namedview>
  <g
     clip-path="url(#clip0_7_1338)"
     id="g3772">
    <path
       d="M30.3968 0.612305V17.7461H37.2454V22.5825H24.6864V0.612305H30.3968V0.612305Z"
       fill="white"
       id="path3750" />
    <path
       d="M37.2427 11.596C37.2427 9.96413 37.5448 8.4455 38.1464 7.03477C38.7479 5.62674 39.5841 4.39673 40.6522 3.35015C41.7204 2.30087 42.9989 1.48086 44.4852 0.887438C45.9715 0.294014 47.6088 0 49.3944 0C51.1801 0 52.7931 0.296712 54.2902 0.887438C55.7845 1.48086 57.0739 2.30087 58.1501 3.35015C59.2291 4.39943 60.068 5.62674 60.6695 7.03477C61.271 8.4428 61.5731 9.96413 61.5731 11.596C61.5731 13.228 61.271 14.7493 60.6695 16.1573C60.068 17.5653 59.2264 18.7953 58.1501 19.8446C57.0712 20.8939 55.7845 21.7139 54.2902 22.3073C52.7931 22.9008 51.1612 23.1948 49.3944 23.1948C47.6276 23.1948 45.9715 22.8981 44.4852 22.3073C42.9989 21.7139 41.7204 20.8939 40.6522 19.8446C39.5841 18.7953 38.7479 17.568 38.1464 16.1573C37.5448 14.7493 37.2427 13.228 37.2427 11.596V11.596ZM43.2174 11.596C43.2174 12.47 43.382 13.2765 43.7138 14.0156C44.0428 14.7547 44.4906 15.3966 45.0543 15.9388C45.6181 16.4837 46.2736 16.9045 47.0207 17.2066C47.7679 17.5087 48.5609 17.6571 49.3944 17.6571C50.2279 17.6571 51.021 17.506 51.7681 17.2066C52.5153 16.9045 53.1762 16.4837 53.7507 15.9388C54.3226 15.3966 54.7757 14.7547 55.1048 14.0156C55.4339 13.2765 55.6011 12.4727 55.6011 11.596C55.6011 10.7194 55.4366 9.91557 55.1048 9.17649C54.773 8.43741 54.3226 7.79813 53.7507 7.25326C53.1762 6.71108 52.518 6.28759 51.7681 5.98549C51.021 5.68338 50.2279 5.53503 49.3944 5.53503C48.5609 5.53503 47.7679 5.68608 47.0207 5.98549C46.2736 6.28759 45.6181 6.70839 45.0543 7.25326C44.4906 7.79813 44.0428 8.43741 43.7138 9.17649C43.382 9.91557 43.2174 10.7221 43.2174 11.596Z"
       fill="white"
       id="path3752" />
    <path
       d="M71.5993 10.2851H82.9337C82.9337 11.4504 82.8851 12.5105 82.788 13.4599C82.6909 14.4121 82.4967 15.2969 82.2054 16.1115C81.7981 17.2579 81.2451 18.2721 80.5438 19.1568C79.8452 20.0416 79.0225 20.7779 78.0811 21.3714C77.1397 21.9648 76.1039 22.4152 74.9791 22.7254C73.8516 23.0356 72.6674 23.1921 71.4239 23.1921C69.7138 23.1921 68.1547 22.9116 66.7467 22.3478C65.3386 21.7841 64.1275 20.9937 63.1187 19.9714C62.1072 18.9518 61.3222 17.7272 60.7585 16.3003C60.1947 14.8734 59.9142 13.2954 59.9142 11.5664C59.9142 9.83736 60.192 8.28906 60.745 6.85945C61.298 5.43254 62.0856 4.21332 63.1052 3.2018C64.1248 2.19298 65.3548 1.40535 66.7925 0.841595C68.2302 0.277842 69.8325 -0.00268555 71.5993 -0.00268555C73.892 -0.00268555 75.9016 0.493633 77.6306 1.48357C79.3596 2.47351 80.7299 4.00832 81.7387 6.088L76.3197 8.33222C75.8153 7.12919 75.1598 6.26333 74.3533 5.74004C73.5468 5.21675 72.6297 4.9524 71.5993 4.9524C70.7442 4.9524 69.9674 5.11155 69.2687 5.43254C68.5701 5.75352 67.9713 6.20938 67.4777 6.80281C66.9814 7.39623 66.5929 8.10834 66.3124 8.94453C66.0319 9.78071 65.8889 10.7113 65.8889 11.7417C65.8889 12.675 66.0103 13.5382 66.2531 14.3339C66.4958 15.1296 66.86 15.8202 67.3455 16.4028C67.831 16.9854 68.4325 17.4359 69.1527 17.7569C69.8702 18.0779 70.7064 18.237 71.6586 18.237C72.2224 18.237 72.7672 18.175 73.2905 18.0482C73.8138 17.9214 74.2859 17.7191 74.704 17.4359C75.1221 17.1554 75.4673 16.7912 75.7371 16.3434C76.0095 15.8957 76.1929 15.3535 76.29 14.7115H71.5993V10.2824V10.2851Z"
       fill="white"
       id="path3754" />
    <path
       d="M90.1411 0.612305V22.5825H84.4307V0.612305H90.1411Z"
       fill="white"
       id="path3756" />
    <path
       d="M105.157 5.44871H98.2818V9.11984H104.548V13.9562H98.2818V22.5825H92.5714V0.612305H105.16V5.44871H105.157Z"
       fill="white"
       id="path3758" />
    <path
       d="M112.376 0.612305V12.559C112.376 13.201 112.4 13.8564 112.448 14.5254C112.497 15.1943 112.643 15.8013 112.885 16.3461C113.128 16.891 113.511 17.3334 114.037 17.6732C114.56 18.0131 115.3 18.183 116.252 18.183C117.204 18.183 117.938 18.0131 118.453 17.6732C118.968 17.3334 119.351 16.891 119.605 16.3461C119.858 15.8013 120.006 15.1943 120.055 14.5254C120.104 13.8537 120.128 13.1983 120.128 12.559V0.612305H125.811V13.3466C125.811 16.7669 125.029 19.262 123.465 20.8346C121.9 22.4071 119.497 23.1948 116.252 23.1948C113.007 23.1948 110.598 22.4071 109.025 20.8346C107.453 19.262 106.665 16.7642 106.665 13.3466V0.612305H112.376V0.612305Z"
       fill="white"
       id="path3760" />
    <path
       d="M136.212 5.44871V22.5825H130.502V5.44871H125.811V0.612305H140.906V5.44871H136.215H136.212Z"
       fill="white"
       id="path3762" />
    <path
       d="M146.616 0.612305V12.559C146.616 13.201 146.64 13.8564 146.689 14.5254C146.737 15.1943 146.883 15.8013 147.126 16.3461C147.369 16.891 147.752 17.3334 148.278 17.6732C148.801 18.0131 149.54 18.183 150.492 18.183C151.444 18.183 152.178 18.0131 152.693 17.6732C153.209 17.3334 153.592 16.891 153.845 16.3461C154.099 15.8013 154.247 15.1943 154.296 14.5254C154.344 13.8537 154.368 13.1983 154.368 12.559V0.612305H160.052V13.3466C160.052 16.7669 159.27 19.262 157.705 20.8346C156.141 22.4071 153.737 23.1948 150.492 23.1948C147.247 23.1948 144.839 22.4071 143.266 20.8346C141.693 19.262 140.906 16.7642 140.906 13.3466V0.612305H146.616V0.612305Z"
       fill="white"
       id="path3764" />
    <path
       d="M180.037 22.5825H172.926L167.478 14.1316V22.5825H161.767V0.612305H170.655C171.88 0.612305 172.948 0.793029 173.86 1.15178C174.771 1.51053 175.524 2.00146 176.117 2.62455C176.711 3.24765 177.156 3.96515 177.458 4.77976C177.76 5.59706 177.908 6.47102 177.908 7.40161C177.908 9.07129 177.504 10.4281 176.7 11.4666C175.894 12.5051 174.704 13.2091 173.131 13.5786L180.037 22.5825ZM167.478 10.4308H168.557C169.684 10.4308 170.547 10.1988 171.149 9.73215C171.75 9.2655 172.052 8.59655 172.052 7.7226C172.052 6.84865 171.75 6.1797 171.149 5.71305C170.547 5.2464 169.681 5.01443 168.557 5.01443H167.478V10.4335V10.4308Z"
       fill="white"
       id="path3766" />
    <path
       d="M193.542 5.44871H186.753V9.11984H193.165V13.9562H186.753V17.7434H193.542V22.5798H181.043V0.612305H193.542V5.44871Z"
       fill="white"
       id="path3768" />
    <path
       d="M0 6.08799V17.0421L9.48669 22.5204L18.9734 17.0421V6.08799L9.48669 0.612305L0 6.08799Z"
       fill="#00DA74"
       id="path3770" />
  </g>
  <defs
     id="defs3777">
    <clipPath
       id="clip0_7_1338">
      <rect
         width="200"
         height="23.1948"
         fill="white"
         id="rect3774" />
    </clipPath>
  </defs>
  <path
     style="stroke-width:0.51020408"
     d="M 25.102041,11.591837 V 0.87755102 h 2.538684 2.538684 l 0.139887,8.54591838 0.139888,8.5459186 3.188775,0.151896 3.188776,0.151897 v 2.016471 2.01647 h -5.867347 -5.867347 z"
     id="path3785"
     inkscape:connector-curvature="0" />
  <path
     style="stroke-width:0.51020408"
     d="M 25.102041,11.591837 V 0.87755102 h 2.538684 2.538684 l 0.139887,8.54591838 0.139888,8.5459186 3.188775,0.151896 3.188776,0.151897 v 2.016471 2.01647 h -5.867347 -5.867347 z"
     id="path3787"
     inkscape:connector-curvature="0" />
  <path
     style="stroke-width:0.51020408"
     d="M 44.234694,21.864458 C 37.356574,18.731925 35.382328,9.8040321 40.349418,4.2945444 42.800467,1.575845 45.524594,0.39248138 49.36411,0.37855204 53.528272,0.3634449 57.373853,2.2429451 59.208661,5.1900051 L 60.522912,7.30095 62.072681,5.0176439 c 1.963234,-2.8924744 4.686271,-4.30289691 8.81496,-4.56579201 3.606486,-0.22964373 5.779866,0.43142347 7.957286,2.42033071 2.696498,2.4630465 2.705751,3.0038511 0.07072,4.1333582 L 76.561813,8.0145112 75.276369,6.4868474 c -1.099474,-1.30665 -1.640303,-1.5276637 -3.738257,-1.5276637 -2.169035,0 -2.636013,0.2086525 -4.036279,1.8034673 -1.361721,1.5509138 -1.583466,2.1974929 -1.583466,4.617173 0,3.053797 0.97241,5.489615 2.52276,6.319337 1.44164,0.771542 5.250096,0.639752 6.483803,-0.22437 0.588689,-0.412334 1.19226,-1.215905 1.341268,-1.785714 0.242015,-0.925463 0.03103,-1.036016 -1.977229,-1.036016 h -2.248153 v -2.040816 -2.040816 h 5.422873 5.422873 l -0.348989,2.630806 c -0.436285,3.288878 -1.287406,4.956243 -3.539179,6.933325 -2.386995,2.09581 -4.893067,2.833636 -8.783262,2.585927 -3.884147,-0.247324 -6.939608,-2.093657 -8.516528,-5.14631 l -0.994313,-1.924823 -1.415851,2.232567 c -2.793545,4.404963 -9.961389,6.300772 -15.053746,3.981537 z m 8.435068,-4.924115 C 55.463979,15.495397 56.52137,11.57128 54.940343,8.5139117 52.771895,4.3205959 45.780882,4.5242532 43.732734,8.8404041 c -0.9756,2.0559249 -0.976954,3.4440879 -0.0054,5.4915809 1.473743,3.105684 5.634027,4.319176 8.942383,2.608358 z"
     id="path3789"
     inkscape:connector-curvature="0" />
  <path
     style="stroke-width:0.51020408"
     d="M 84.795918,11.591837 V 0.87755102 h 2.551021 2.55102 V 11.591837 22.306122 h -2.55102 -2.551021 z"
     id="path3791"
     inkscape:connector-curvature="0" />
  <path
     style="stroke-width:0.51020408"
     d="M 84.795918,11.591837 V 0.87755102 h 2.551021 2.55102 V 11.591837 22.306122 h -2.55102 -2.551021 z"
     id="path3793"
     inkscape:connector-curvature="0" />
  <path
     style="stroke-width:0.51020408"
     d="M 92.959184,11.591837 V 0.87755102 h 5.867347 5.867349 V 3.1734694 5.4693878 h -3.31633 -3.316326 v 2.0408163 2.0408163 h 3.061226 3.06122 v 2.0408166 2.040816 h -3.06122 -3.061226 v 4.336735 4.336734 h -2.55102 -2.55102 z"
     id="path3795"
     inkscape:connector-curvature="0" />
  <path
     style="stroke-width:0.51020408"
     d="m 111.3628,21.922677 c -3.76081,-1.917682 -4.59833,-4.509572 -4.61593,-14.2849219 l -0.0122,-6.76020408 h 2.80613 2.80612 V 8.4170888 c 0,8.9860902 0.31625,9.8074012 3.77638,9.8074012 3.73926,0 4.10136,-0.819568 4.30613,-9.7464686 l 0.17434,-7.60047038 h 2.54813 2.54812 l -0.1756,8.29081628 c -0.20122,9.5005837 -0.6497,10.9215047 -3.98402,12.6225457 -2.60242,1.327656 -7.70283,1.393689 -10.17762,0.131764 z"
     id="path3797"
     inkscape:connector-curvature="0" />
  <path
     style="stroke-width:0.51020408"
     d="m 145.54647,21.922677 c -3.50171,-1.785566 -4.56655,-4.645973 -4.60557,-12.3716566 l -0.0219,-4.3367347 -2.55134,0.1767926 -2.55133,0.1767926 v 8.3691251 8.369126 h -2.55102 -2.55102 V 13.887755 5.4693878 h -2.29592 -2.29592 V 3.1734694 0.87755102 h 10.20408 10.20408 V 8.5306122 c 0,6.9727898 0.0907,7.7437648 1.02041,8.6734698 1.4095,1.409498 4.61677,1.38133 5.91582,-0.05195 0.84622,-0.933659 0.99319,-2.055532 1.13624,-8.6734699 l 0.16431,-7.60110608 h 2.51427 2.51426 V 8.6776071 c 0,7.0854859 -0.10517,8.0051479 -1.14796,10.0387799 -0.71323,1.390928 -1.82119,2.591141 -2.92571,3.169331 -2.36944,1.240341 -7.77728,1.259982 -10.17578,0.03696 z"
     id="path3799"
     inkscape:connector-curvature="0" />
  <path
     style="stroke-width:0.51020408"
     d="M 161.83673,11.591837 V 0.87755102 h 5.5368 c 4.91859,0 5.72953,0.12988308 7.26297,1.16327308 2.053,1.3835127 2.99878,3.0704854 3.00904,5.3671657 0.0101,2.2660173 -1.12668,4.3188432 -2.88262,5.2053982 -0.79563,0.401701 -1.54069,0.793798 -1.65569,0.871327 -0.115,0.07753 1.20515,1.987683 2.93367,4.244788 1.72853,2.257105 3.14277,4.210205 3.14277,4.340223 0,0.130018 -1.38786,0.236396 -3.08414,0.236396 h -3.08414 l -2.65566,-4.176802 -2.65565,-4.176802 -0.14818,4.176802 -0.14819,4.176802 h -2.78549 -2.78549 z m 9.21722,-1.548564 c 0.66632,-0.3566046 0.98687,-1.069197 0.98687,-2.1938771 0,-2.1113413 -0.78371,-2.8902122 -2.90817,-2.8902122 h -1.68367 v 2.8061224 c 0,2.6722349 0.0625,2.8061229 1.30905,2.8061229 0.71998,0 1.75314,-0.23767 2.29592,-0.528156 z"
     id="path3801"
     inkscape:connector-curvature="0" />
  <path
     style="stroke-width:0.51020408"
     d="M 181.22449,11.591837 V 0.87755102 h 6.12245 6.12245 V 3.1734694 5.4693878 h -3.60223 -3.60223 l 0.15835,1.9132653 0.15835,1.9132653 3.18878,0.1518964 3.18877,0.1518969 v 2.0164703 2.016471 h -3.34566 -3.34566 l 0.15689,2.168367 0.15688,2.168368 3.44388,0.150862 3.44388,0.150862 v 2.017505 2.017505 h -6.12245 -6.12245 z"
     id="path3803"
     inkscape:connector-curvature="0" />
  <path
     style="stroke-width:0.18038438"
     d="m 46.65184,22.863977 c -3.476045,-0.691148 -6.538983,-2.981876 -8.015596,-5.994751 -1.077732,-2.199002 -1.336972,-3.434016 -1.22113,-5.817457 0.1861,-3.8290232 1.859552,-6.8660598 4.906064,-8.9036912 1.970783,-1.31813993 3.762307,-1.85886827 6.497095,-1.96099139 2.687414,-0.10035405 4.234916,0.19775229 6.355952,1.22439279 1.895936,0.9176861 3.982503,2.8950484 4.892162,4.6361204 l 0.589815,1.1288994 0.649321,-1.3092838 c 0.851389,-1.7167301 2.731326,-3.6028407 4.41285,-4.4273415 2.084467,-1.02207661 3.831943,-1.36135243 6.453002,-1.25286295 3.086063,0.1277367 5.115059,0.86914685 6.988722,2.55373205 0.927127,0.8335661 2.245943,2.6273744 2.286183,3.1095857 0.01414,0.1694318 -0.844693,0.6157261 -2.493697,1.2958569 L 76.43732,8.1836041 75.705664,7.0923055 c -1.000976,-1.4930037 -2.320069,-2.1787964 -4.158958,-2.162229 -3.489805,0.031441 -5.673901,2.6787276 -5.679967,6.8845385 -0.0042,2.886065 1.199413,5.08975 3.284565,6.013867 1.460545,0.647299 3.656586,0.61656 5.056311,-0.07078 1.102326,-0.541299 1.817375,-1.453449 2.049598,-2.614566 l 0.114775,-0.573872 h -2.367545 -2.367545 v -2.074421 -2.07442 h 5.619477 5.619476 l -0.111944,1.95653 c -0.311268,5.440213 -3.159615,9.050092 -8.134425,10.309238 -1.744607,0.441569 -4.548506,0.477647 -6.239503,0.08029 -3.027402,-0.711398 -5.781973,-2.847142 -7.058515,-5.472788 l -0.648677,-1.334223 -0.604848,1.153839 c -0.92732,1.769002 -2.963339,3.717178 -4.85602,4.646513 -0.843297,0.414071 -2.101478,0.871744 -2.795958,1.017053 -1.336576,0.279653 -4.561073,0.328297 -5.774121,0.0871 z m 4.140699,-5.320978 c 2.333766,-0.384101 4.386501,-2.506157 4.769798,-4.930875 0.660158,-4.1761378 -2.823583,-7.6284234 -7.110836,-7.0466305 -2.071559,0.2811168 -3.836694,1.58935 -4.794176,3.5532132 -0.338161,0.6935931 -0.41526,1.1506643 -0.417353,2.4742163 -0.0023,1.434232 0.05844,1.745205 0.520812,2.667971 0.895781,1.787721 2.586272,3.031998 4.583191,3.373434 0.830554,0.142009 1.089506,0.132351 2.448564,-0.09133 z"
     id="path3807"
     inkscape:connector-curvature="0" />
  <path
     style="stroke-width:0.18038438"
     d="m 46.65184,22.863977 c -3.476045,-0.691148 -6.538983,-2.981876 -8.015596,-5.994751 -1.077732,-2.199002 -1.336972,-3.434016 -1.22113,-5.817457 0.1861,-3.8290232 1.859552,-6.8660598 4.906064,-8.9036912 1.970783,-1.31813993 3.762307,-1.85886827 6.497095,-1.96099139 2.687414,-0.10035405 4.234916,0.19775229 6.355952,1.22439279 1.895936,0.9176861 3.982503,2.8950484 4.892162,4.6361204 l 0.589815,1.1288994 0.649321,-1.3092838 c 0.851389,-1.7167301 2.731326,-3.6028407 4.41285,-4.4273415 2.084467,-1.02207661 3.831943,-1.36135243 6.453002,-1.25286295 3.086063,0.1277367 5.115059,0.86914685 6.988722,2.55373205 0.927127,0.8335661 2.245943,2.6273744 2.286183,3.1095857 0.01414,0.1694318 -0.844693,0.6157261 -2.493697,1.2958569 L 76.43732,8.1836041 75.705664,7.0923055 c -1.000976,-1.4930037 -2.320069,-2.1787964 -4.158958,-2.162229 -3.489805,0.031441 -5.673901,2.6787276 -5.679967,6.8845385 -0.0042,2.886065 1.199413,5.08975 3.284565,6.013867 1.460545,0.647299 3.656586,0.61656 5.056311,-0.07078 1.102326,-0.541299 1.817375,-1.453449 2.049598,-2.614566 l 0.114775,-0.573872 h -2.367545 -2.367545 v -2.074421 -2.07442 h 5.619477 5.619476 l -0.111944,1.95653 c -0.311268,5.440213 -3.159615,9.050092 -8.134425,10.309238 -1.744607,0.441569 -4.548506,0.477647 -6.239503,0.08029 -3.027402,-0.711398 -5.781973,-2.847142 -7.058515,-5.472788 l -0.648677,-1.334223 -0.604848,1.153839 c -0.92732,1.769002 -2.963339,3.717178 -4.85602,4.646513 -0.843297,0.414071 -2.101478,0.871744 -2.795958,1.017053 -1.336576,0.279653 -4.561073,0.328297 -5.774121,0.0871 z m 4.140699,-5.320978 c 2.333766,-0.384101 4.386501,-2.506157 4.769798,-4.930875 0.660158,-4.1761378 -2.823583,-7.6284234 -7.110836,-7.0466305 -2.071559,0.2811168 -3.836694,1.58935 -4.794176,3.5532132 -0.338161,0.6935931 -0.41526,1.1506643 -0.417353,2.4742163 -0.0023,1.434232 0.05844,1.745205 0.520812,2.667971 0.895781,1.787721 2.586272,3.031998 4.583191,3.373434 0.830554,0.142009 1.089506,0.132351 2.448564,-0.09133 z"
     id="path3811"
     inkscape:connector-curvature="0" />
  <path
     style="stroke-width:0.18038438"
     d="M 24.736958,11.592923 V 0.67966738 h 2.795958 2.795958 V 9.2479256 17.816184 h 3.427303 3.427304 v 2.344997 2.344997 h -6.223262 -6.223261 z"
     id="path3813"
     inkscape:connector-curvature="0" />
  <path
     style="stroke-width:0.18038438"
     d="M 24.736958,11.592923 V 0.67966738 h 2.795958 2.795958 V 9.2479256 17.816184 h 3.427303 3.427304 v 2.344997 2.344997 h -6.223262 -6.223261 z"
     id="path3815"
     inkscape:connector-curvature="0" />
  <path
     style="stroke-width:0.18038438"
     d="M 24.736958,11.592923 V 0.67966738 h 2.795958 2.795958 V 9.2479256 17.816184 h 3.427303 3.427304 v 2.344997 2.344997 h -6.223262 -6.223261 z"
     id="path3817"
     inkscape:connector-curvature="0" />
  <path
     style="stroke-width:0.18038438"
     d="M 24.736958,11.592923 V 0.67966738 h 2.795958 2.795958 V 9.2479256 17.816184 h 3.427303 3.427304 v 2.344997 2.344997 h -6.223262 -6.223261 z"
     id="path3819"
     inkscape:connector-curvature="0" />
  <path
     style="fill:#000000;stroke-width:0.18038438"
     d="M 24.736958,11.592923 V 0.67966738 h 2.795958 2.795958 V 9.2479256 17.816184 h 3.427303 3.427304 v 2.344997 2.344997 h -6.223262 -6.223261 z"
     id="path3823"
     inkscape:connector-curvature="0" />
  <path
     style="fill:#000000;stroke-width:0.18038438"
     d="m 46.65184,22.863977 c -3.476045,-0.691148 -6.538983,-2.981876 -8.015596,-5.994751 -1.077732,-2.199002 -1.336972,-3.434016 -1.22113,-5.817457 0.1861,-3.8290232 1.859552,-6.8660598 4.906064,-8.9036912 1.970783,-1.31813993 3.762307,-1.85886827 6.497095,-1.96099139 2.687414,-0.10035405 4.234916,0.19775229 6.355952,1.22439279 1.895936,0.9176861 3.982503,2.8950484 4.892162,4.6361204 l 0.589815,1.1288994 0.649321,-1.3092838 c 0.851389,-1.7167301 2.731326,-3.6028407 4.41285,-4.4273415 2.084467,-1.02207661 3.831943,-1.36135243 6.453002,-1.25286295 3.086063,0.1277367 5.115059,0.86914685 6.988722,2.55373205 0.927127,0.8335661 2.245943,2.6273744 2.286183,3.1095857 0.01414,0.1694318 -0.844693,0.6157261 -2.493697,1.2958569 L 76.43732,8.1836041 75.705664,7.0923055 c -1.000976,-1.4930037 -2.320069,-2.1787964 -4.158958,-2.162229 -3.489805,0.031441 -5.673901,2.6787276 -5.679967,6.8845385 -0.0042,2.886065 1.199413,5.08975 3.284565,6.013867 1.460545,0.647299 3.656586,0.61656 5.056311,-0.07078 1.102326,-0.541299 1.817375,-1.453449 2.049598,-2.614566 l 0.114775,-0.573872 h -2.367545 -2.367545 v -2.074421 -2.07442 h 5.619477 5.619476 l -0.111944,1.95653 c -0.311268,5.440213 -3.159615,9.050092 -8.134425,10.309238 -1.744607,0.441569 -4.548506,0.477647 -6.239503,0.08029 -3.027402,-0.711398 -5.781973,-2.847142 -7.058515,-5.472788 l -0.648677,-1.334223 -0.604848,1.153839 c -0.92732,1.769002 -2.963339,3.717178 -4.85602,4.646513 -0.843297,0.414071 -2.101478,0.871744 -2.795958,1.017053 -1.336576,0.279653 -4.561073,0.328297 -5.774121,0.0871 z m 4.140699,-5.320978 c 2.333766,-0.384101 4.386501,-2.506157 4.769798,-4.930875 0.660158,-4.1761378 -2.823583,-7.6284234 -7.110836,-7.0466305 -2.071559,0.2811168 -3.836694,1.58935 -4.794176,3.5532132 -0.338161,0.6935931 -0.41526,1.1506643 -0.417353,2.4742163 -0.0023,1.434232 0.05844,1.745205 0.520812,2.667971 0.895781,1.787721 2.586272,3.031998 4.583191,3.373434 0.830554,0.142009 1.089506,0.132351 2.448564,-0.09133 z"
     id="path3827"
     inkscape:connector-curvature="0" />
  <path
     style="fill:#000000;stroke-width:0.18038438"
     d="M 92.741871,11.592923 V 0.67966738 h 6.133069 6.13307 V 3.0246644 5.3696613 h -3.4273 -3.427308 v 1.8940361 1.894036 h 3.156728 3.15673 v 2.3449966 2.344997 h -3.15673 -3.156728 v 4.329226 4.329225 h -2.705766 -2.705765 z"
     id="path3829"
     inkscape:connector-curvature="0" />
  <path
     style="fill:#000000;stroke-width:0.18038438"
     d="M 84.444189,11.592923 V 0.67966738 h 2.795958 2.795958 V 11.592923 22.506178 h -2.795958 -2.795958 z"
     id="path3831"
     inkscape:connector-curvature="0" />
  <path
     style="fill:#000000;stroke-width:0.18038438"
     d="m 112.90391,22.777449 c -3.12028,-0.788437 -4.92136,-2.606217 -5.73523,-5.788407 -0.32726,-1.279572 -0.35683,-2.013093 -0.35683,-8.8522775 V 0.67966738 h 2.68732 2.68732 l 0.0799,7.26047142 c 0.0592,5.3848762 0.14103,7.4235662 0.31661,7.8918172 0.63159,1.684384 1.64292,2.344997 3.58993,2.344997 1.49911,0 2.07564,-0.191814 2.86493,-0.953162 1.0613,-1.023733 1.12246,-1.538735 1.12246,-9.4516804 V 0.67966738 h 2.80956 2.80957 l -0.075,7.71143242 c -0.0647,6.6511472 -0.11817,7.8588942 -0.38921,8.7839172 -0.8498,2.900173 -2.208,4.384343 -4.89895,5.353278 -1.40351,0.505368 -5.90727,0.654737 -7.5124,0.249154 z"
     id="path3833"
     inkscape:connector-curvature="0" />
  <path
     style="fill:#000000;stroke-width:0.18038438"
     d="m 147.17695,22.777449 c -2.32925,-0.588555 -4.08712,-1.897068 -5.02683,-3.741818 -0.94107,-1.847426 -1.07867,-2.826192 -1.19215,-8.479919 l -0.10409,-5.1860507 h -2.31969 -2.31968 v 8.5682587 8.568258 h -2.79596 -2.79596 V 13.93792 5.3696613 h -2.345 -2.34499 V 3.0246644 0.67966738 h 10.26918 10.26918 l 0.0713,7.26047142 c 0.0771,7.8503182 0.11337,8.1658202 1.06301,9.2474022 0.69874,0.795817 1.56041,1.048904 3.27615,0.962263 1.50649,-0.07607 2.06603,-0.357487 2.77172,-1.39401 0.69156,-1.015758 0.78017,-2.064148 0.78017,-9.2303988 V 0.67966738 h 2.79596 2.79596 V 7.3135257 c 0,3.6486223 -0.0855,7.3157513 -0.19001,8.1491753 -0.47118,3.757746 -1.98741,5.876886 -5.01498,7.00911 -1.0413,0.389417 -1.55388,0.45604 -3.90443,0.507477 -1.93702,0.04239 -2.99928,-0.01495 -3.73888,-0.201839 z"
     id="path3835"
     inkscape:connector-curvature="0" />
  <path
     style="fill:#000000;stroke-width:0.18038438"
     d="M 161.82909,11.57899 V 0.65180259 l 5.45663,0.065443 c 5.24188,0.0628676 5.49917,0.0823177 6.5376,0.49422891 1.47736,0.5860189 2.95196,2.06539 3.51678,3.5281713 0.53219,1.3782509 0.58537,3.6911517 0.11681,5.0801923 -0.54246,1.6081299 -1.93191,2.8926869 -3.84546,3.5551769 l -0.5937,0.205544 3.39833,4.417714 3.39834,4.417713 -3.25966,0.04932 c -1.79281,0.02712 -3.35083,0.01434 -3.46226,-0.02843 -0.11143,-0.04276 -1.41281,-1.952246 -2.89195,-4.243304 l -2.68935,-4.165558 -0.0484,4.239083 -0.0484,4.239083 h -2.7927 -2.79269 z m 8.83645,-1.491432 c 0.88742,-0.4211306 1.44562,-1.3307872 1.44478,-2.3544794 -0.001,-1.7460205 -1.23547,-2.7129484 -3.47172,-2.7202244 l -1.21759,-0.00396 v 2.6757016 c 0,1.471636 0.0586,2.7343442 0.13031,2.8060192 0.20966,0.209654 2.42814,-0.07747 3.11422,-0.403055 z"
     id="path3837"
     inkscape:connector-curvature="0" />
  <path
     style="fill:#000000;stroke-width:0.18038438"
     d="M 181.13022,11.592923 V 0.67966738 h 6.13307 6.13307 V 3.0246644 5.3696613 h -3.33711 -3.33712 v 1.8940361 1.894036 h 3.15673 3.15673 v 2.3449966 2.344997 h -3.15673 -3.15673 v 1.984229 1.984228 h 3.33712 3.33711 v 2.344997 2.344997 h -6.13307 -6.13307 z"
     id="path3839"
     inkscape:connector-curvature="0" />
</svg>
